<svg width="24" height="25" viewBox="0 0 24 25" fill="none" xmlns="http://www.w3.org/2000/svg">
<path id="Icon" fill-rule="evenodd" clip-rule="evenodd" d="M21.6907 20.8043C21.5694 19.5673 20.5262 18.5976 19.2614 18.5976C18.9845 18.5976 18.7093 18.6451 18.4496 18.7366C17.6791 17.9684 16.5935 17.5185 15.4775 17.5185C14.3821 17.5185 13.3647 17.9521 12.6303 18.6758V15.8558C12.6303 14.9571 11.9012 14.2259 11.0052 14.2259H9.68384V12.9227C9.68384 12.6582 9.47005 12.4438 9.20631 12.4438H7.99368V0.47892C7.99368 0.21446 7.77989 0 7.51615 0H5.37339C5.10966 0 4.89587 0.21446 4.89587 0.47892V12.4438H3.68324C3.4195 12.4438 3.20571 12.6582 3.20571 12.9227V14.226H1.8844C0.988317 14.226 0.259277 14.9572 0.259277 15.8558V24.0418C0.259277 24.3062 0.473066 24.5207 0.736804 24.5207H22.4287C22.6344 24.5207 22.8171 24.3885 22.8819 24.1927C22.9776 23.9037 23.0261 23.6023 23.0261 23.2971C23.0261 22.3378 22.5094 21.3857 21.6907 20.8043ZM5.85092 0.957842H7.03863V12.4438H5.85092V0.957842ZM8.72878 13.4016H4.16076V14.226H8.72878V13.4016ZM1.21433 15.8558C1.21433 15.4853 1.51489 15.1838 1.8844 15.1838H11.0052C11.3746 15.1838 11.6752 15.4853 11.6752 15.8558V16.6195H1.21433V15.8558ZM10.58 23.5629H11.6752V17.5774H1.21433V23.5629H2.30958V21.0165C2.30958 20.752 2.52337 20.5375 2.78711 20.5375C3.05085 20.5375 3.26464 20.752 3.26464 21.0165V23.5629H4.74807V21.0165C4.74807 20.752 4.96186 20.5375 5.2256 20.5375C5.48934 20.5375 5.70313 20.752 5.70313 21.0165V23.5629H7.18647V21.0165C7.18647 20.752 7.40026 20.5375 7.66399 20.5375C7.92773 20.5375 8.14152 20.752 8.14152 21.0165V23.5629H9.62491V21.0165C9.62491 20.752 9.8387 20.5375 10.1024 20.5375C10.3662 20.5375 10.58 20.752 10.58 21.0165V23.5629ZM22.0524 23.5629H12.6303V20.3748C13.0697 19.236 14.2035 18.4764 15.4775 18.4764C16.4382 18.4764 17.3669 18.9036 17.9621 19.6192C18.1076 19.7942 18.356 19.842 18.5559 19.7337C18.771 19.6171 19.0149 19.5554 19.2614 19.5554C20.0808 19.5554 20.7475 20.224 20.7475 21.0458L20.7474 21.0655C20.7451 21.2376 20.835 21.3977 20.9829 21.4849C21.6338 21.8686 22.0712 22.5969 22.0712 23.2971C22.0711 23.3864 22.0648 23.4751 22.0524 23.5629ZM11.9892 14.307L13.5526 14.9295L14.1692 16.5082C14.2517 16.7192 14.4535 16.858 14.6783 16.858C14.903 16.858 15.1049 16.7192 15.1873 16.5082L15.8039 14.9295L17.3674 14.307C17.5764 14.2237 17.7139 14.0199 17.7139 13.7929C17.7139 13.566 17.5765 13.3622 17.3674 13.2789L15.8039 12.6563L15.1873 11.0776C15.1049 10.8666 14.903 10.7278 14.6783 10.7278C14.4535 10.7278 14.2517 10.8666 14.1692 11.0776L13.5526 12.6563L11.9891 13.2789C11.7801 13.3622 11.6427 13.566 11.6427 13.7929C11.6427 14.0199 11.7802 14.2237 11.9892 14.307ZM14.1752 13.5963C14.3162 13.5401 14.4279 13.4274 14.4835 13.285L14.6783 12.7864L14.873 13.285C14.9287 13.4274 15.0403 13.5401 15.1813 13.5963L15.6751 13.7929L15.1814 13.9895C15.0403 14.0457 14.9287 14.1584 14.8731 14.3008L14.6783 14.7994L14.4836 14.3008C14.4279 14.1584 14.3163 14.0457 14.1753 13.9895L13.6816 13.7929L14.1752 13.5963Z" fill="#0E335F"/>
</svg>
