<svg width="20" height="20" viewBox="0 0 20 20" fill="none" xmlns="http://www.w3.org/2000/svg">
<g id="1. Icons / Line /  clock">
<path id="clock" fill-rule="evenodd" clip-rule="evenodd" d="M10.0001 18.3334C5.39758 18.3334 1.66675 14.6026 1.66675 10.0001C1.66675 5.39758 5.39758 1.66675 10.0001 1.66675C14.6026 1.66675 18.3334 5.39758 18.3334 10.0001C18.3334 14.6026 14.6026 18.3334 10.0001 18.3334ZM10.0001 17.5001C12.6796 17.5001 15.1555 16.0706 16.4953 13.7501C17.835 11.4296 17.835 8.57059 16.4953 6.25008C15.1555 3.92957 12.6796 2.50008 10.0001 2.50008C5.85795 2.50008 2.50008 5.85795 2.50008 10.0001C2.50008 14.1422 5.85795 17.5001 10.0001 17.5001ZM13.1584 11.7442C13.2849 11.8285 13.3556 11.975 13.3427 12.1264C13.3298 12.2779 13.2354 12.4103 13.0965 12.4719C12.9575 12.5336 12.796 12.5147 12.6751 12.4226L9.75842 10.3392C9.68029 10.2836 9.62377 10.2026 9.59842 10.1101L8.34842 5.52675C8.30363 5.38148 8.34151 5.22335 8.44726 5.11414C8.55301 5.00493 8.70984 4.96198 8.85647 5.00207C9.00311 5.04216 9.11627 5.15893 9.15175 5.30675L10.3634 9.74758L13.1592 11.7442H13.1584Z" fill="#8F9BB3"/>
</g>
</svg>
