<svg width="22" height="23" viewBox="0 0 22 23" fill="none" xmlns="http://www.w3.org/2000/svg">
<path id="Icon" fill-rule="evenodd" clip-rule="evenodd" d="M19.3917 11.1905L20.9864 11.8043C21.1605 11.8714 21.2748 12.0354 21.2748 12.218C21.2748 12.4006 21.1604 12.5647 20.9864 12.6317L19.3917 13.2455L18.7945 14.7233V22.3245C18.7945 22.5701 18.5905 22.7692 18.3389 22.7692H3.06539C2.81375 22.7692 2.60976 22.5701 2.60976 22.3245V10.0775H0.714891C0.528174 10.0775 0.36032 9.96626 0.291429 9.79682C0.222537 9.62743 0.266551 9.43416 0.40242 9.30911L10.3896 0.121139C10.5651 -0.0403797 10.8391 -0.0403797 11.0147 0.121139L15.3708 4.12864V2.59488C15.3708 2.34931 15.5748 2.15017 15.8264 2.15017H18.2027C18.4543 2.15017 18.6583 2.34931 18.6583 2.59488V7.15311L21.0019 9.30911C21.1378 9.43416 21.1818 9.62743 21.1128 9.79682C21.044 9.96626 20.8761 10.0775 20.6894 10.0775H18.9419L19.3917 11.1905ZM17.7471 3.03959H16.2821V4.96696L17.7471 6.31479V3.03959ZM10.7022 1.05587L19.5417 9.18801H17.1718L11.0189 3.38206C10.8422 3.21534 10.5621 3.21543 10.3855 3.38206L4.23254 9.18806H1.86262L10.7022 1.05587ZM10.7022 4.32036L5.54356 9.18806H15.8608L10.7022 4.32036ZM5.85294 21.8798V15.2935H8.61907V21.8798H5.85294V21.8798ZM9.53037 14.8488V21.8798V21.8798H17.8832V14.7233L17.2861 13.2456L15.6914 12.6318C15.5173 12.5647 15.4029 12.4006 15.4029 12.218C15.4029 12.0354 15.5173 11.8713 15.6914 11.8043L17.2861 11.1905L17.7359 10.0775H3.52107V21.8798H4.94172V14.8488C4.94172 14.6032 5.14571 14.4041 5.39735 14.4041H9.07474C9.32638 14.4041 9.53037 14.6032 9.53037 14.8488ZM18.8733 12.489C18.7559 12.5342 18.6629 12.625 18.6166 12.7396L18.3389 13.4267L18.0612 12.7396C18.0148 12.625 17.9219 12.5342 17.8045 12.489L17.1005 12.218L17.8045 11.947C17.9219 11.9018 18.0148 11.8111 18.0612 11.6965L18.3389 11.0093L18.6166 11.6965C18.6629 11.8111 18.7559 11.9018 18.8733 11.947L19.5773 12.218L18.8733 12.489ZM16.2662 14.5723H11.6639C11.4209 14.5723 11.2239 14.7579 11.2239 14.9867V18.7117C11.2239 18.9406 11.4209 19.1262 11.6639 19.1262H16.2662C16.5092 19.1262 16.7062 18.9406 16.7062 18.7117V14.9867C16.7062 14.7579 16.5092 14.5723 16.2662 14.5723ZM15.8262 18.2973H12.1039V15.4012H15.8262V18.2973Z" fill="#0E335F"/>
</svg>
