<svg width="23" height="26" viewBox="0 0 23 26" fill="none" xmlns="http://www.w3.org/2000/svg">
<path id="Icon" fill-rule="evenodd" clip-rule="evenodd" d="M2.3995 0.63916H20.3879C21.7053 0.63916 22.7771 1.53024 22.7771 2.62558V23.1735C22.7771 24.2688 21.7053 25.1599 20.3878 25.1599H2.3995C1.08204 25.1599 0.0102539 24.2688 0.0102539 23.1735V2.62558C0.0102539 1.53024 1.08209 0.63916 2.3995 0.63916ZM20.3878 1.597H2.3995C1.71741 1.597 1.1624 2.05844 1.1624 2.62558V5.0482H3.53482V3.43026C3.53482 3.16575 3.79277 2.95134 4.11086 2.95134H9.38107C9.69916 2.95134 9.95711 3.16575 9.95711 3.43026V5.0482H21.625V2.62558C21.625 2.05844 21.07 1.597 20.3878 1.597ZM8.80503 5.04824H4.68691V3.90918H8.80503V5.04824ZM2.3995 24.202H20.3879C21.07 24.202 21.625 23.7406 21.625 23.1735V6.00608H1.16234V23.1735C1.16234 23.7406 1.71735 24.202 2.3995 24.202ZM6.29076 14.8877C6.29076 12.5124 8.69858 10.58 11.6582 10.58C13.6743 10.58 15.503 11.4756 16.4305 12.9171C16.5337 13.0775 16.5149 13.271 16.382 13.4166C16.249 13.5623 16.025 13.6347 15.8034 13.6039C15.6972 13.589 15.5883 13.5815 15.4798 13.5815C14.449 13.5815 13.6103 14.2543 13.6103 15.0812C13.6103 15.9081 14.449 16.5809 15.4798 16.5809C15.5095 16.5809 15.539 16.5803 15.5683 16.5792C15.7925 16.5703 16.0038 16.6655 16.113 16.8234C16.2221 16.9812 16.2104 17.1752 16.083 17.3239C15.0784 18.4958 13.4244 19.1954 11.6582 19.1954C8.69858 19.1954 6.29076 17.263 6.29076 14.8877ZM14.447 17.3876C13.2701 17.047 12.4265 16.1417 12.4265 15.0813C12.4265 13.9122 13.4518 12.9317 14.8185 12.6886C14.0338 11.9607 12.8909 11.531 11.6582 11.531C9.3513 11.531 7.47452 13.0368 7.47452 14.8877C7.47452 16.7386 9.3513 18.2445 11.6582 18.2445C12.6974 18.2445 13.6872 17.9334 14.447 17.3876ZM11.3937 7.9291C6.84838 7.9291 3.15051 11.0507 3.15051 14.8877C3.15051 18.7246 6.84838 21.8463 11.3937 21.8463C15.939 21.8463 19.6368 18.7247 19.6368 14.8877C19.6368 11.0507 15.939 7.9291 11.3937 7.9291ZM11.3937 20.8963C7.46822 20.8963 4.27463 18.2009 4.27463 14.8877C4.27463 11.5745 7.46822 8.87902 11.3937 8.87902C15.3191 8.87902 18.5127 11.5745 18.5127 14.8877C18.5127 18.2008 15.3191 20.8963 11.3937 20.8963ZM13.1779 3.95277H15.1049C15.4399 3.95277 15.7115 3.80442 15.7115 3.62141C15.7115 3.4384 15.4399 3.29005 15.1049 3.29005H13.1779C12.8429 3.29005 12.5713 3.4384 12.5713 3.62141C12.5713 3.80442 12.8429 3.95277 13.1779 3.95277ZM19.0302 3.95277H17.1033C16.7683 3.95277 16.4966 3.80442 16.4966 3.62141C16.4966 3.4384 16.7683 3.29005 17.1033 3.29005H19.0302C19.3652 3.29005 19.6368 3.4384 19.6368 3.62141C19.6368 3.80442 19.3652 3.95277 19.0302 3.95277Z" fill="#0E335F"/>
</svg>
