<svg width="28" height="28" viewBox="0 0 28 28" fill="none" xmlns="http://www.w3.org/2000/svg">
<g id="1. Icons / Line /  mail">
<path id="mail" fill-rule="evenodd" clip-rule="evenodd" d="M4.48821 20.8366C4.71804 20.9486 4.97704 21.0116 5.25004 21.0116H22.75C23.023 21.0116 23.282 20.9486 23.5119 20.8366L16.6192 14.3499L14.371 16.2003C14.1556 16.3778 13.8445 16.3778 13.629 16.2003L11.3809 14.3488L4.48821 20.8366ZM3.66687 20.0083C3.67221 20.0027 3.67766 19.9973 3.68321 19.9919L10.4732 13.6009L3.71237 8.03359C3.69776 8.02144 3.68375 8.00859 3.67037 7.99509C3.55776 8.23076 3.49954 8.48872 3.50004 8.74992V19.2616C3.50004 19.5288 3.55954 19.7819 3.66687 20.0083ZM24.3332 20.0083C24.4405 19.7819 24.5 19.5288 24.5 19.2616V8.74992C24.5 8.47925 24.4394 8.22492 24.3297 7.99509C24.3163 8.00859 24.3023 8.02144 24.2877 8.03359L17.5269 13.6009L24.3169 19.9919L24.3332 20.0083ZM23.5014 7.16908C23.2667 7.05738 23.01 6.99958 22.75 6.99992H5.25004C4.98171 6.99992 4.72504 7.06058 4.49871 7.16908L14 14.9939L23.5014 7.16908ZM5.25004 5.83325H22.75C24.3609 5.83325 25.6667 7.13909 25.6667 8.74992V19.2616C25.6667 20.8724 24.3609 22.1783 22.75 22.1783H5.25004C3.63921 22.1783 2.33337 20.8724 2.33337 19.2616V8.74992C2.33337 7.13909 3.63921 5.83325 5.25004 5.83325Z" fill="#121924"/>
</g>
</svg>
