<svg width="24" height="24" viewBox="0 0 24 24" fill="none" xmlns="http://www.w3.org/2000/svg">
<g id="1. Icons / Line /  minus-circle">
<path id="minus-circle" fill-rule="evenodd" clip-rule="evenodd" d="M12.5 23C6.701 23 2 18.299 2 12.5C2 6.701 6.701 2 12.5 2C18.299 2 23 6.701 23 12.5C23 18.299 18.299 23 12.5 23ZM12.5 22C17.7467 22 22 17.7467 22 12.5C22 7.25329 17.7467 3 12.5 3C7.25329 3 3 7.25329 3 12.5C3 17.7467 7.25329 22 12.5 22ZM8.5 13C8.22386 13 8 12.7761 8 12.5C8 12.2239 8.22386 12 8.5 12H16.5C16.7761 12 17 12.2239 17 12.5C17 12.7761 16.7761 13 16.5 13H8.5Z" fill="#121924"/>
</g>
</svg>
