<svg width="175" height="175" viewBox="0 0 175 175" fill="none" xmlns="http://www.w3.org/2000/svg">
<g id="not-approved 1">
<g id="Group">
<path id="Vector" d="M87.4999 169.853C132.982 169.853 169.853 132.982 169.853 87.4999C169.853 42.0176 132.982 5.14697 87.4999 5.14697C42.0176 5.14697 5.14697 42.0176 5.14697 87.4999C5.14697 132.982 42.0176 169.853 87.4999 169.853Z" fill="#FFCA45"/>
<path id="Vector_2" d="M53.7866 15.4409V41.3049H27.9226V155.956H132.537V15.4409H53.7866Z" fill="white"/>
<path id="Vector_3" d="M53.7866 15.4409L27.9226 41.3049H53.7866V15.4409ZM55.7167 51.7277H127.39V54.5586H55.7167V51.7277ZM55.7167 58.2902H127.39V61.1211H55.7167V58.2902ZM55.7167 64.8527H88.5292V67.6836H55.7167V64.8527ZM55.7167 104.099H127.39V106.93H55.7167V104.099ZM55.7167 110.661H127.39V113.492H55.7167V110.661ZM55.7167 117.224H88.5292V120.055H55.7167V117.224ZM55.7167 81.1946H127.39V84.0255H55.7167V81.1946ZM55.7167 87.7571H88.5292V90.588H55.7167V87.7571Z" fill="#DEDEDF"/>
<path id="Vector_4" d="M119.283 159.559C134.633 159.559 147.077 147.115 147.077 131.765C147.077 116.415 134.633 103.971 119.283 103.971C103.933 103.971 91.4888 116.415 91.4888 131.765C91.4888 147.115 103.933 159.559 119.283 159.559Z" fill="#F0582F"/>
<path id="Vector_5" d="M129.66 117.335L133.753 121.429L108.918 146.264L104.824 142.172L129.66 117.335Z" fill="white"/>
<path id="Vector_6" d="M109.008 117.244L133.844 142.08L129.751 146.174L104.915 121.338L109.008 117.244Z" fill="white"/>
<path id="Vector_7" d="M47.1844 54.502L48.4583 55.7759L40.6347 63.5994L39.3608 62.3255L47.1844 54.502Z" fill="#F0582F"/>
<path id="Vector_8" d="M40.6333 54.502L48.4568 62.3255L47.1829 63.5994L39.3594 55.7759L40.6333 54.502ZM47.1932 81.2667L48.4671 82.5406L40.6436 90.3641L39.3697 89.0902L47.1932 81.2667Z" fill="#F0582F"/>
<path id="Vector_9" d="M40.6436 81.2666L48.4671 89.0901L47.1932 90.364L39.3697 82.5405L40.6436 81.2666ZM47.1546 107.496L48.4285 108.77L40.605 116.593L39.3311 115.32L47.1546 107.496Z" fill="#F0582F"/>
<path id="Vector_10" d="M40.605 107.496L48.4285 115.32L47.1546 116.594L39.3311 108.77L40.605 107.496Z" fill="#F0582F"/>
</g>
</g>
</svg>
