<svg width="20" height="20" viewBox="0 0 20 20" fill="none" xmlns="http://www.w3.org/2000/svg">
<g id="1. Icons / Line /  notebook">
<path id="notebook" fill-rule="evenodd" clip-rule="evenodd" d="M3.33333 13.3333V6.66667H2.91667C2.68655 6.66667 2.5 6.48012 2.5 6.25C2.5 6.01988 2.68655 5.83333 2.91667 5.83333H3.33333V4.58333C3.33333 3.43274 4.26607 2.5 5.41667 2.5H14.5833C15.7339 2.5 16.6667 3.43274 16.6667 4.58333V15.4167C16.6667 16.5673 15.7339 17.5 14.5833 17.5H5.41667C4.26607 17.5 3.33333 16.5673 3.33333 15.4167V14.1667H2.91667C2.68655 14.1667 2.5 13.9801 2.5 13.75C2.5 13.5199 2.68655 13.3333 2.91667 13.3333H3.33333ZM4.16667 13.3333H4.58333C4.81345 13.3333 5 13.5199 5 13.75C5 13.9801 4.81345 14.1667 4.58333 14.1667H4.16667V15.4167C4.16667 16.107 4.72631 16.6667 5.41667 16.6667H14.5833C15.2737 16.6667 15.8333 16.107 15.8333 15.4167V4.58333C15.8333 3.89298 15.2737 3.33333 14.5833 3.33333H5.41667C4.72631 3.33333 4.16667 3.89298 4.16667 4.58333V5.83333H4.58333C4.81345 5.83333 5 6.01988 5 6.25C5 6.48012 4.81345 6.66667 4.58333 6.66667H4.16667V13.3333ZM7.08333 5H12.9167C13.607 5 14.1667 5.55964 14.1667 6.25V7.91667C14.1667 8.60702 13.607 9.16667 12.9167 9.16667H7.08333C6.39298 9.16667 5.83333 8.60702 5.83333 7.91667V6.25C5.83333 5.55964 6.39298 5 7.08333 5ZM7.08333 5.83333C6.85321 5.83333 6.66667 6.01988 6.66667 6.25V7.91667C6.66667 8.14678 6.85321 8.33333 7.08333 8.33333H12.9167C13.1468 8.33333 13.3333 8.14678 13.3333 7.91667V6.25C13.3333 6.01988 13.1468 5.83333 12.9167 5.83333H7.08333Z" fill="#8F9BB3"/>
</g>
</svg>
