<svg width="24" height="24" viewBox="0 0 24 24" fill="none" xmlns="http://www.w3.org/2000/svg">
<g id="1. Icons / Line /  plus-circle">
<path id="plus-circle" fill-rule="evenodd" clip-rule="evenodd" d="M13 12H16.5C16.7761 12 17 12.2239 17 12.5C17 12.7761 16.7761 13 16.5 13H13V16.5C13 16.7761 12.7761 17 12.5 17C12.2239 17 12 16.7761 12 16.5V13H8.5C8.22386 13 8 12.7761 8 12.5C8 12.2239 8.22386 12 8.5 12H12V8.5C12 8.22386 12.2239 8 12.5 8C12.7761 8 13 8.22386 13 8.5V12ZM12.5 23C6.701 23 2 18.299 2 12.5C2 6.701 6.701 2 12.5 2C18.299 2 23 6.701 23 12.5C23 18.299 18.299 23 12.5 23ZM12.5 22C17.7467 22 22 17.7467 22 12.5C22 7.25329 17.7467 3 12.5 3C7.25329 3 3 7.25329 3 12.5C3 17.7467 7.25329 22 12.5 22Z" fill="#121924"/>
</g>
</svg>
