<svg width="30" height="30" viewBox="0 0 30 30" fill="none" xmlns="http://www.w3.org/2000/svg">
<g id="Icon">
<path id="Shape" fill-rule="evenodd" clip-rule="evenodd" d="M26.1292 21.2032L24.2837 21.5724C24.0858 22.2523 23.8153 22.9074 23.4746 23.5263L24.5184 25.0916L21.2198 28.3897L19.6545 27.346C19.0419 27.6828 18.3935 27.9523 17.72 28.1492L17.3275 30H12.6722L12.2803 28.1492C11.6125 27.9537 10.9695 27.6876 10.3617 27.3552L8.77706 28.3863L5.4848 25.0945L6.51593 23.5089C6.18303 22.9011 5.9169 22.2581 5.7219 21.5903L3.87109 21.1984V16.5431L5.7219 16.1516C5.91738 15.4839 6.18303 14.8408 6.51593 14.2331L5.4848 12.6474L8.77706 9.35565L10.3617 10.3868C10.9748 10.051 11.6242 9.7834 12.2992 9.58743L12.6679 7.74194H17.3324L17.7016 9.58743C18.3819 9.78485 19.0371 10.0558 19.655 10.396L21.2203 9.35227L24.5188 12.6503L23.4751 14.2157C23.8153 14.8345 24.0863 15.4892 24.2837 16.1695L26.1292 16.5387V21.2032ZM21.0974 27.1447L23.2734 24.9682L22.3351 23.5607L22.49 23.2989C22.9075 22.5944 23.2225 21.8332 23.4267 21.0363L23.5022 20.7416L25.1614 20.4097V17.3323L23.5022 17.0008L23.4267 16.7061C23.2225 15.9092 22.9071 15.1481 22.49 14.4436L22.3351 14.1818L23.2729 12.7742L21.0969 10.5977L19.6893 11.536L19.4275 11.3807C18.7235 10.9631 17.9619 10.6481 17.165 10.4439L16.8703 10.3684L16.5384 8.70969H13.4614L13.129 10.3679L12.8343 10.4434C12.0432 10.6461 11.2879 10.9573 10.5896 11.369L10.3313 11.521L8.90577 10.5939L6.72303 12.7766L7.65013 14.2026L7.49819 14.461C7.09077 15.1534 6.78109 15.9015 6.57835 16.6844L6.50384 16.9747L4.83884 17.3274V20.414L6.50432 20.7668L6.57884 21.0571C6.78158 21.84 7.09077 22.5881 7.49867 23.2805L7.65061 23.5389L6.72351 24.9648L8.90626 27.1476L10.3317 26.2205L10.5901 26.3724C11.283 26.7803 12.0311 27.09 12.814 27.2927L13.1038 27.3677L13.4566 29.0323H16.5432L16.8964 27.3682L17.1863 27.2932C17.9759 27.0886 18.7303 26.775 19.428 26.3618L19.6898 26.2065L21.0974 27.1447Z" fill="#0E335F"/>
<rect id="Rectangle" x="14.5161" y="9.67749" width="0.967742" height="0.967742" fill="#0E335F"/>
<path id="Rectangle_2" d="M8.15709 12.7122L8.84138 12.0279L9.52567 12.7122L8.84138 13.3964L8.15709 12.7122Z" fill="#0E335F"/>
<rect id="Rectangle_3" x="5.80664" y="18.3872" width="0.967742" height="0.967742" fill="#0E335F"/>
<path id="Rectangle_4" d="M8.15709 25.0293L8.84138 24.345L9.52567 25.0293L8.84138 25.7136L8.15709 25.0293Z" fill="#0E335F"/>
<rect id="Rectangle_5" x="14.5161" y="27.0967" width="0.967742" height="0.967742" fill="#0E335F"/>
<path id="Rectangle_6" d="M20.474 25.0295L21.1583 24.3453L21.8426 25.0295L21.1583 25.7138L20.474 25.0295Z" fill="#0E335F"/>
<rect id="Rectangle_7" x="23.2256" y="18.3872" width="0.967742" height="0.967742" fill="#0E335F"/>
<path id="Rectangle_8" d="M20.474 12.7122L21.1583 12.0279L21.8426 12.7122L21.1583 13.3964L20.474 12.7122Z" fill="#0E335F"/>
<path id="Shape_2" fill-rule="evenodd" clip-rule="evenodd" d="M8.70947 18.8709C8.70947 15.4025 11.5314 12.5806 14.9998 12.5806C18.4682 12.5806 21.2901 15.4025 21.2901 18.8709C21.2901 22.3393 18.4682 25.1612 14.9998 25.1612C11.5314 25.1612 8.70947 22.3393 8.70947 18.8709ZM9.67721 18.8709C9.67721 21.8056 12.0651 24.1935 14.9998 24.1935C17.9345 24.1935 20.3224 21.8056 20.3224 18.8709C20.3224 15.9362 17.9345 13.5483 14.9998 13.5483C12.0651 13.5483 9.67721 15.9362 9.67721 18.8709Z" fill="#0E335F"/>
<path id="Shape_3" fill-rule="evenodd" clip-rule="evenodd" d="M11.6128 18.871C11.6128 17.0032 13.1326 15.4839 14.9999 15.4839C16.8671 15.4839 18.387 17.0032 18.387 18.871C18.387 20.7387 16.8671 22.2581 14.9999 22.2581C13.1326 22.2581 11.6128 20.7387 11.6128 18.871ZM12.5805 18.871C12.5805 20.205 13.6659 21.2903 14.9999 21.2903C16.3339 21.2903 17.4192 20.205 17.4192 18.871C17.4192 17.537 16.3339 16.4516 14.9999 16.4516C13.6659 16.4516 12.5805 17.537 12.5805 18.871Z" fill="#0E335F"/>
<rect id="Rectangle_9" x="26.1289" y="25.1614" width="0.967742" height="0.967742" fill="#0E335F"/>
<rect id="Rectangle_10" x="26.1289" y="27.0967" width="0.967742" height="0.967742" fill="#0E335F"/>
<rect id="Rectangle_11" x="27.0967" y="26.1292" width="0.967742" height="0.967742" fill="#0E335F"/>
<rect id="Rectangle_12" x="25.1611" y="26.1292" width="0.967742" height="0.967742" fill="#0E335F"/>
<rect id="Rectangle_13" x="0.967773" y="26.1292" width="0.967742" height="0.967742" fill="#0E335F"/>
<rect id="Rectangle_14" x="0.967773" y="28.0645" width="0.967742" height="0.967742" fill="#0E335F"/>
<rect id="Rectangle_15" x="1.93555" y="27.0967" width="0.967742" height="0.967742" fill="#0E335F"/>
<rect id="Rectangle_16" y="27.0967" width="0.967742" height="0.967742" fill="#0E335F"/>
<rect id="Rectangle_17" x="28.0645" y="9.67749" width="0.967742" height="0.967742" fill="#0E335F"/>
<rect id="Rectangle_18" x="28.0645" y="11.6128" width="0.967742" height="0.967742" fill="#0E335F"/>
<rect id="Rectangle_19" x="29.0322" y="10.6453" width="0.967742" height="0.967742" fill="#0E335F"/>
<rect id="Rectangle_20" x="27.0967" y="10.6453" width="0.967742" height="0.967742" fill="#0E335F"/>
<rect id="Rectangle_21" x="1.93555" y="10.6453" width="0.967742" height="0.967742" fill="#0E335F"/>
<rect id="Rectangle_22" x="1.93555" y="12.5806" width="0.967742" height="0.967742" fill="#0E335F"/>
<rect id="Rectangle_23" x="2.90332" y="11.6128" width="0.967742" height="0.967742" fill="#0E335F"/>
<rect id="Rectangle_24" x="0.967773" y="11.6128" width="0.967742" height="0.967742" fill="#0E335F"/>
<path id="Shape_4" fill-rule="evenodd" clip-rule="evenodd" d="M7.97182 6.77419C7.16714 7.97468 5.80602 8.70968 4.35489 8.70968C3.35618 8.70968 2.41408 8.37629 1.63166 7.74581L1.45166 7.60065V5.80645H3.57198L4.29779 4.35484L3.57198 2.90323H1.45166V1.10903L1.63166 0.963871C2.41408 0.333387 3.35618 0 4.35489 0C5.80602 0 7.16714 0.735 7.97182 1.93548H22.0283C22.833 0.735 24.1941 0 25.6452 0C26.6439 0 27.586 0.333387 28.3684 0.963871L28.5484 1.10903V2.90323H26.4286L25.7028 4.35484L26.4286 5.80645H28.5489V7.60065L28.3689 7.74581C27.5865 8.37629 26.6444 8.70968 25.6457 8.70968C24.1946 8.70968 22.8334 7.97468 22.0288 6.77419H7.97182ZM4.17005 6.77419H2.4194V7.12839C2.98989 7.53048 3.65424 7.74194 4.35489 7.74194C5.55682 7.74194 6.67989 7.09258 7.28521 6.0479L7.42505 5.80645H22.575L22.7149 6.0479C23.3202 7.09258 24.4433 7.74194 25.6452 7.74194C26.3459 7.74194 27.0102 7.53048 27.5807 7.12839V6.77419H25.83L24.6204 4.35484L25.83 1.93548H27.5807V1.58129C27.0102 1.17919 26.3459 0.967742 25.6452 0.967742C24.4433 0.967742 23.3202 1.6171 22.7154 2.66177L22.5755 2.90323H7.42505L7.28521 2.66177C6.67989 1.6171 5.55682 0.967742 4.35489 0.967742C3.65424 0.967742 2.98989 1.17919 2.4194 1.58129V1.93548H4.17005L5.37972 4.35484L4.17005 6.77419Z" fill="#0E335F"/>
</g>
</svg>
